<svg width="469" height="469" viewBox="0 0 469 469" fill="none" xmlns="http://www.w3.org/2000/svg">
<path d="M168.75 464.75C168.75 466.959 166.959 468.75 164.75 468.75H154C151.791 468.75 150 466.959 150 464.75V344.439C150 342.23 151.791 340.439 154 340.439H164.75C166.959 340.439 168.75 342.23 168.75 344.439V464.75Z" fill="black"/>
<path d="M205.078 355.078C205.829 355.829 206.25 356.846 206.25 357.907V464.75C206.25 466.959 204.459 468.75 202.25 468.75H191.5C189.291 468.75 187.5 466.959 187.5 464.75V342.518C187.5 341.37 188.431 340.439 189.579 340.439C190.13 340.439 190.658 340.658 191.048 341.048L205.078 355.078Z" fill="black"/>
<path d="M242.578 392.578C243.329 393.329 243.75 394.346 243.75 395.407V464.75C243.75 466.959 241.959 468.75 239.75 468.75H229C226.791 468.75 225 466.959 225 464.75V384.657C225 381.093 229.309 379.309 231.828 381.828L242.578 392.578Z" fill="black"/>
<path d="M280.078 430.078C280.829 430.829 281.25 431.846 281.25 432.907V464.75C281.25 466.959 279.459 468.75 277.25 468.75H266.5C264.291 468.75 262.5 466.959 262.5 464.75V422.157C262.5 418.593 266.809 416.809 269.328 419.328L280.078 430.078Z" fill="black"/>
<path d="M311.922 461.922C314.441 464.441 312.657 468.75 309.093 468.75H304C301.791 468.75 300 466.959 300 464.75V459.657C300 456.093 304.309 454.309 306.828 456.828L311.922 461.922Z" fill="black"/>
<path d="M128.31 450.11C128.31 453.673 124.001 455.458 121.481 452.938L117.879 449.336C116.317 447.774 116.317 445.241 117.879 443.679L121.481 440.078C124.001 437.558 128.31 439.343 128.31 442.906V450.11Z" fill="black"/>
<path d="M350.871 443.679C352.433 445.241 352.433 447.774 350.871 449.336L343.269 456.937C341.707 458.499 339.174 458.499 337.612 456.937L227.945 347.27C225.425 344.75 227.209 340.441 230.773 340.441H245.976C247.037 340.441 248.054 340.863 248.804 341.613L350.871 443.679Z" fill="black"/>
<path d="M128.31 405.077C128.31 406.137 127.888 407.155 127.138 407.905L104.621 430.422C103.059 431.984 100.527 431.984 98.9645 430.422L91.3626 422.82C89.8005 421.258 89.8005 418.725 91.3627 417.163L121.481 387.045C124.001 384.525 128.31 386.31 128.31 389.873V405.077Z" fill="black"/>
<path d="M377.387 417.163C378.949 418.725 378.949 421.258 377.387 422.82L369.785 430.421C368.223 431.983 365.691 431.983 364.129 430.421L280.978 347.27C278.458 344.75 280.243 340.441 283.806 340.441H299.009C300.07 340.441 301.087 340.863 301.838 341.613L377.387 417.163Z" fill="black"/>
<path d="M128.31 352.043C128.31 353.104 127.888 354.122 127.138 354.872L78.1049 403.905C76.5428 405.467 74.01 405.467 72.4479 403.905L64.8468 396.303C63.2848 394.741 63.2848 392.208 64.8469 390.646L121.481 334.012C124.001 331.492 128.31 333.277 128.31 336.84V352.043Z" fill="black"/>
<path d="M403.904 390.646C405.466 392.208 405.466 394.741 403.904 396.303L396.302 403.904C394.74 405.466 392.207 405.466 390.645 403.904L334.011 347.27C331.491 344.75 333.276 340.441 336.839 340.441H352.042C353.103 340.441 354.121 340.863 354.871 341.613L403.904 390.646Z" fill="black"/>
<path d="M128.31 299.01C128.31 300.071 127.888 301.088 127.138 301.839L51.5883 377.388C50.0262 378.95 47.4934 378.95 45.9313 377.388L38.3302 369.786C36.7682 368.224 36.7682 365.692 38.3303 364.13L121.481 280.979C124.001 278.459 128.31 280.244 128.31 283.807V299.01Z" fill="black"/>
<path d="M430.421 364.129C431.983 365.692 431.983 368.224 430.42 369.786L422.819 377.388C421.257 378.95 418.724 378.95 417.162 377.388L387.044 347.27C384.524 344.75 386.309 340.441 389.873 340.441H405.076C406.136 340.441 407.154 340.863 407.904 341.613L430.421 364.129Z" fill="black"/>
<path d="M128.31 245.977C128.31 247.038 127.888 248.055 127.138 248.805L25.0716 350.872C23.5095 352.434 20.9768 352.434 19.4147 350.872L11.8138 343.271C10.2517 341.709 10.2517 339.176 11.8138 337.614L121.481 227.946C124.001 225.426 128.31 227.21 128.31 230.774V245.977Z" fill="black"/>
<path d="M449.335 350.871C447.773 352.433 445.241 352.433 443.678 350.871L440.077 347.27C437.558 344.75 439.342 340.441 442.906 340.441H450.108C453.671 340.441 455.456 344.75 452.936 347.27L449.335 350.871Z" fill="black"/>
<path d="M6.82843 311.923C4.30857 314.442 0 312.658 0 309.094V304.001C0 301.792 1.79086 300.001 4 300.001H9.09315C12.6568 300.001 14.4414 304.31 11.9216 306.829L6.82843 311.923Z" fill="black"/>
<path d="M468.75 314.751C468.75 316.96 466.959 318.751 464.75 318.751H344.44C342.231 318.751 340.44 316.96 340.44 314.751V304.001C340.44 301.792 342.231 300.001 344.44 300.001H464.75C466.959 300.001 468.75 301.792 468.75 304.001V314.751Z" fill="black"/>
<path d="M218.755 150C219.821 150 220.788 150.683 220.895 151.743L230.381 278.062C230.381 278.542 230.614 279.02 230.63 279.499C230.631 279.519 230.631 279.54 230.631 279.561C230.631 279.685 230.677 279.81 230.771 279.935L230.989 280.185C231.014 280.218 231.036 280.252 231.055 280.286C231.131 280.424 231.297 280.537 231.358 280.684C231.387 280.754 231.409 280.839 231.463 280.892C231.534 280.963 231.605 281.034 231.676 281.105C231.806 281.235 231.965 281.288 232.128 281.37C232.292 281.452 232.463 281.538 232.627 281.62C232.791 281.702 232.98 281.807 233.163 281.807H234.375C236.871 281.807 238.203 280.559 238.369 278.062L247.855 151.743C247.96 150.698 248.896 150 249.946 150H314.75C316.959 150 318.75 151.791 318.75 154V314.75C318.75 316.959 316.959 318.75 314.75 318.75H280.332C279.138 318.75 278.063 317.951 278.062 316.757V190.688C278.062 188.191 276.814 186.943 274.318 186.942H273.569C273.436 186.942 273.249 186.996 273.009 187.103C272.884 187.159 272.744 187.182 272.617 187.234C272.593 187.243 272.57 187.255 272.546 187.268C272.385 187.356 272.235 187.423 272.071 187.505C271.907 187.586 271.736 187.672 271.572 187.754C271.408 187.836 271.335 188.054 271.247 188.215C271.206 188.29 271.148 188.365 271.072 188.44C271.068 188.445 270.985 188.528 270.823 188.69C270.657 188.857 270.573 189.107 270.573 189.439C270.573 189.518 270.555 189.614 270.518 189.729C270.418 190.042 270.323 190.359 270.323 190.688L258.591 317.256C258.49 318.162 257.661 318.75 256.749 318.75H212.007C211.093 318.75 210.261 318.164 210.16 317.256L198.427 190.688C198.26 188.191 196.929 186.943 194.433 186.942C191.936 186.942 190.688 188.191 190.688 190.688V316.757C190.687 317.951 189.612 318.75 188.418 318.75H154C151.791 318.75 150 316.959 150 314.75V154C150 151.791 151.791 150 154 150H218.755Z" fill="black"/>
<path d="M38.6716 280.079C37.9214 280.83 36.904 281.251 35.8431 281.251H4C1.79086 281.251 0 279.46 0 277.251V266.501C0 264.292 1.79086 262.501 4 262.501H46.5931C50.1568 262.501 51.9414 266.81 49.4216 269.329L38.6716 280.079Z" fill="black"/>
<path d="M468.75 277.251C468.75 279.46 466.959 281.251 464.75 281.251H342.52C341.371 281.251 340.44 280.32 340.44 279.172C340.44 278.62 340.659 278.091 341.049 277.702L355.078 263.673C355.829 262.922 356.846 262.501 357.907 262.501H464.75C466.959 262.501 468.75 264.292 468.75 266.501V277.251Z" fill="black"/>
<path d="M456.937 125.481C458.499 127.043 458.499 129.576 456.937 131.138L347.27 240.805C344.75 243.325 340.441 241.541 340.441 237.977V222.774C340.441 221.713 340.863 220.696 341.613 219.946L443.679 117.88C445.241 116.318 447.774 116.318 449.336 117.88L456.937 125.481Z" fill="black"/>
<path d="M76.1716 242.579C75.4214 243.33 74.404 243.751 73.3431 243.751H4C1.79086 243.751 0 241.96 0 239.751V229.001C0 226.792 1.79086 225.001 4 225.001H84.0931C87.6568 225.001 89.4414 229.31 86.9216 231.829L76.1716 242.579Z" fill="black"/>
<path d="M468.75 239.751C468.75 241.96 466.959 243.751 464.75 243.751H384.657C381.093 243.751 379.309 239.442 381.828 236.923L392.578 226.173C393.329 225.422 394.346 225.001 395.407 225.001H464.75C466.959 225.001 468.75 226.792 468.75 229.001V239.751Z" fill="black"/>
<path d="M128.312 189.579C128.312 190.13 128.093 190.658 127.703 191.048L113.672 205.079C112.921 205.83 111.904 206.251 110.843 206.251H4C1.79086 206.251 0 204.46 0 202.251V191.501C0 189.292 1.79086 187.501 4 187.501H126.234C127.381 187.501 128.312 188.431 128.312 189.579Z" fill="black"/>
<path d="M468.75 202.251C468.75 204.46 466.959 206.251 464.75 206.251H422.157C418.593 206.251 416.809 201.942 419.328 199.423L430.078 188.673C430.829 187.922 431.846 187.501 432.907 187.501H464.75C466.959 187.501 468.75 189.292 468.75 191.501V202.251Z" fill="black"/>
<path d="M430.421 98.9646C431.983 100.527 431.983 103.059 430.421 104.621L347.27 187.773C344.75 190.293 340.441 188.508 340.441 184.945V169.742C340.441 168.681 340.863 167.664 341.613 166.913L417.163 91.3636C418.725 89.8015 421.258 89.8015 422.82 91.3636L430.421 98.9646Z" fill="black"/>
<path d="M128.312 164.751C128.312 166.96 126.521 168.751 124.312 168.751H4C1.79086 168.751 0 166.96 0 164.751V154.001C0 151.792 1.79086 150.001 4 150.001H124.312C126.521 150.001 128.312 151.792 128.312 154.001V164.751Z" fill="black"/>
<path d="M468.75 164.751C468.75 166.96 466.959 168.751 464.75 168.751H459.657C456.093 168.751 454.309 164.442 456.828 161.923L461.922 156.829C464.441 154.31 468.75 156.094 468.75 159.658V164.751Z" fill="black"/>
<path d="M403.904 72.4489C405.466 74.011 405.466 76.5436 403.904 78.1057L347.27 134.74C344.75 137.26 340.441 135.475 340.441 131.911V116.709C340.441 115.648 340.863 114.63 341.613 113.88L390.646 64.8471C392.208 63.2849 394.741 63.285 396.303 64.8472L403.904 72.4489Z" fill="black"/>
<path d="M281.25 126.232C281.25 127.38 280.319 128.311 279.171 128.311C278.62 128.311 278.092 128.092 277.702 127.702L263.672 113.672C262.921 112.921 262.5 111.904 262.5 110.843V4C262.5 1.79086 264.291 0 266.5 0H277.25C279.459 0 281.25 1.79086 281.25 4V126.232Z" fill="black"/>
<path d="M318.75 124.311C318.75 126.52 316.959 128.311 314.75 128.311H304C301.791 128.311 300 126.52 300 124.311V4C300 1.79086 301.791 0 304 0H314.75C316.959 0 318.75 1.79086 318.75 4V124.311Z" fill="black"/>
<path d="M28.6732 121.481C31.1929 124.001 29.4082 128.31 25.8446 128.31H18.6412C15.0776 128.31 13.2929 124.001 15.8128 121.481L19.4146 117.879C20.9768 116.317 23.5095 116.317 25.0716 117.879L28.6732 121.481Z" fill="black"/>
<path d="M81.706 121.481C84.2258 124.001 82.4411 128.31 78.8775 128.31H63.6744C62.6136 128.31 61.5961 127.888 60.846 127.138L38.3294 104.621C36.7673 103.059 36.7673 100.527 38.3294 98.9645L45.9313 91.3626C47.4934 89.8005 50.0261 89.8005 51.5882 91.3627L81.706 121.481Z" fill="black"/>
<path d="M134.739 121.481C137.259 124.001 135.474 128.31 131.91 128.31H116.708C115.647 128.31 114.629 127.888 113.879 127.138L64.846 78.1048C63.2839 76.5427 63.2839 74.01 64.846 72.4479L72.447 64.847C74.0091 63.2849 76.5417 63.2849 78.1038 64.8469L134.739 121.481Z" fill="black"/>
<path d="M187.772 121.481C190.292 124.001 188.507 128.31 184.944 128.31H169.741C168.68 128.31 167.663 127.888 166.912 127.138L91.3626 51.5882C89.8005 50.0261 89.8005 47.4934 91.3626 45.9313L98.9636 38.3304C100.526 36.7683 103.058 36.7683 104.62 38.3303L187.772 121.481Z" fill="black"/>
<path d="M240.804 121.481C243.324 124.001 241.54 128.31 237.976 128.31H222.773C221.712 128.31 220.695 127.888 219.945 127.138L117.879 25.0716C116.317 23.5095 116.317 20.9768 117.879 19.4147L125.48 11.8138C127.042 10.2517 129.575 10.2517 131.137 11.8138L240.804 121.481Z" fill="black"/>
<path d="M243.75 84.0931C243.75 87.6568 239.441 89.4414 236.922 86.9216L226.172 76.1716C225.421 75.4214 225 74.404 225 73.3431V4C225 1.79086 226.791 0 229 0H239.75C241.959 0 243.75 1.79086 243.75 4V84.0931Z" fill="black"/>
<path d="M377.388 45.9323C378.95 47.4944 378.95 50.027 377.388 51.5891L347.27 81.7067C344.75 84.2266 340.441 82.4419 340.441 78.8783V63.6754C340.441 62.6145 340.863 61.5971 341.613 60.847L364.129 38.3305C365.692 36.7683 368.224 36.7684 369.786 38.3306L377.388 45.9323Z" fill="black"/>
<path d="M206.25 46.5931C206.25 50.1568 201.941 51.9414 199.422 49.4216L188.672 38.6716C187.921 37.9214 187.5 36.904 187.5 35.8431V4C187.5 1.79086 189.291 0 191.5 0H202.25C204.459 0 206.25 1.79086 206.25 4V46.5931Z" fill="black"/>
<path d="M350.871 19.4157C352.433 20.9778 352.433 23.5104 350.871 25.0725L347.27 28.6735C344.75 31.1934 340.441 29.4087 340.441 25.8451V18.6427C340.441 15.079 344.75 13.2944 347.27 15.8144L350.871 19.4157Z" fill="black"/>
<path d="M168.75 9.09315C168.75 12.6568 164.441 14.4414 161.922 11.9216L156.828 6.82843C154.309 4.30857 156.093 0 159.657 0H164.75C166.959 0 168.75 1.79086 168.75 4V9.09315Z" fill="black"/>
<path d="M318.75 318.75H278.316C278.148 318.17 278.062 317.506 278.062 316.757V190.688C278.062 188.191 276.814 186.943 274.318 186.942H273.569C273.403 186.942 273.153 187.026 272.82 187.192C272.654 187.192 272.487 187.276 272.32 187.442C272.154 187.443 271.988 187.525 271.821 187.691C271.655 187.691 271.489 187.775 271.322 187.941C271.322 188.108 271.239 188.274 271.072 188.44C271.069 188.444 270.986 188.528 270.823 188.69C270.657 188.857 270.573 189.107 270.573 189.439C270.573 189.606 270.49 189.856 270.323 190.188V190.688L258.591 317.256C258.531 317.797 258.426 318.295 258.278 318.75H210.477C210.327 318.302 210.221 317.804 210.16 317.256L198.427 190.688C198.26 188.191 196.929 186.943 194.433 186.942C191.936 186.942 190.688 188.191 190.688 190.688V316.757C190.688 317.506 190.602 318.17 190.434 318.75H150V150H220.538C220.709 150.503 220.829 151.084 220.895 151.743L230.381 278.062V278.812C230.547 278.978 230.631 279.228 230.631 279.561C230.631 279.685 230.677 279.81 230.771 279.935L230.989 280.185C231.083 280.309 231.13 280.434 231.13 280.559C231.296 280.559 231.379 280.642 231.379 280.809C231.545 280.975 231.712 281.141 231.879 281.308C232.045 281.308 232.212 281.391 232.378 281.558C232.544 281.558 232.711 281.64 232.877 281.807H234.375C236.871 281.807 238.203 280.559 238.369 278.062L247.855 151.743C247.921 151.084 248.028 150.503 248.172 150H318.75V318.75Z" fill="black"/>
</svg>
